<?xml version="1.0" encoding="utf-8"?>
<!-- Generator: Adobe Illustrator 24.0.1, SVG Export Plug-In . SVG Version: 6.00 Build 0)  -->
<svg version="1.1" id="Layer_1" xmlns="http://www.w3.org/2000/svg" xmlns:xlink="http://www.w3.org/1999/xlink" x="0px" y="0px"
	 viewBox="0 0 336 76" enable-background="new 0 0 336 76" xml:space="preserve">
<g>
	<circle fill="#808080" cx="0" cy="14" r="11.8"/>
	<path fill="#808080" d="M0,2.5c6.3,0,11.5,5.2,11.5,11.5S6.3,25.5,0,25.5S-11.5,20.3-11.5,14S-6.3,2.5,0,2.5 M0,2
		c-6.6,0-12,5.4-12,12s5.4,12,12,12s12-5.4,12-12S6.6,2,0,2L0,2z"/>
</g>
<g>
	<path fill="#808080" d="M24,50.5c6.3,0,11.5,5.2,11.5,11.5S30.3,73.5,24,73.5S12.5,68.3,12.5,62S17.7,50.5,24,50.5 M24,50
		c-6.6,0-12,5.4-12,12s5.4,12,12,12s12-5.4,12-12S30.6,50,24,50L24,50z"/>
</g>
<g>
	<circle fill="#808080" cx="24" cy="14" r="11.8"/>
	<path fill="#808080" d="M24,2.5c6.3,0,11.5,5.2,11.5,11.5S30.3,25.5,24,25.5S12.5,20.3,12.5,14S17.7,2.5,24,2.5 M24,2
		c-6.6,0-12,5.4-12,12s5.4,12,12,12s12-5.4,12-12S30.6,2,24,2L24,2z"/>
</g>
<g>
	<path fill="#808080" d="M48,2.5c6.3,0,11.5,5.2,11.5,11.5S54.3,25.5,48,25.5S36.5,20.3,36.5,14S41.7,2.5,48,2.5 M48,2
		c-6.6,0-12,5.4-12,12s5.4,12,12,12s12-5.4,12-12S54.6,2,48,2L48,2z"/>
</g>
<g>
	<circle fill="#808080" cx="48" cy="38" r="11.8"/>
	<path fill="#808080" d="M48,26.5c6.3,0,11.5,5.2,11.5,11.5S54.3,49.5,48,49.5S36.5,44.3,36.5,38S41.7,26.5,48,26.5 M48,26
		c-6.6,0-12,5.4-12,12s5.4,12,12,12s12-5.4,12-12S54.6,26,48,26L48,26z"/>
</g>
<g>
	<path fill="#808080" d="M48,50.5c6.3,0,11.5,5.2,11.5,11.5S54.3,73.5,48,73.5S36.5,68.3,36.5,62S41.7,50.5,48,50.5 M48,50
		c-6.6,0-12,5.4-12,12s5.4,12,12,12s12-5.4,12-12S54.6,50,48,50L48,50z"/>
</g>
<g>
	<path fill="#808080" d="M24,26.5c6.3,0,11.5,5.2,11.5,11.5S30.3,49.5,24,49.5S12.5,44.3,12.5,38S17.7,26.5,24,26.5 M24,26
		c-6.6,0-12,5.4-12,12s5.4,12,12,12s12-5.4,12-12S30.6,26,24,26L24,26z"/>
</g>
<g>
	<circle fill="#808080" cx="96" cy="14" r="11.8"/>
	<path fill="#808080" d="M96,2.5c6.3,0,11.5,5.2,11.5,11.5S102.3,25.5,96,25.5S84.5,20.3,84.5,14S89.7,2.5,96,2.5 M96,2
		c-6.6,0-12,5.4-12,12s5.4,12,12,12s12-5.4,12-12S102.6,2,96,2L96,2z"/>
</g>
<g>
	<path fill="#808080" d="M96,26.5c6.3,0,11.5,5.2,11.5,11.5S102.3,49.5,96,49.5S84.5,44.3,84.5,38S89.7,26.5,96,26.5 M96,26
		c-6.6,0-12,5.4-12,12s5.4,12,12,12s12-5.4,12-12S102.6,26,96,26L96,26z"/>
</g>
<g>
	<circle fill="#808080" cx="96" cy="62" r="11.8"/>
	<path fill="#808080" d="M96,50.5c6.3,0,11.5,5.2,11.5,11.5S102.3,73.5,96,73.5S84.5,68.3,84.5,62S89.7,50.5,96,50.5 M96,50
		c-6.6,0-12,5.4-12,12s5.4,12,12,12s12-5.4,12-12S102.6,50,96,50L96,50z"/>
</g>
<g>
	<circle fill="#808080" cx="120" cy="14" r="11.8"/>
	<path fill="#808080" d="M120,2.5c6.3,0,11.5,5.2,11.5,11.5s-5.2,11.5-11.5,11.5s-11.5-5.2-11.5-11.5S113.7,2.5,120,2.5 M120,2
		c-6.6,0-12,5.4-12,12s5.4,12,12,12s12-5.4,12-12S126.6,2,120,2L120,2z"/>
</g>
<g>
	<path fill="#808080" d="M120,50.5c6.3,0,11.5,5.2,11.5,11.5s-5.2,11.5-11.5,11.5s-11.5-5.2-11.5-11.5S113.7,50.5,120,50.5 M120,50
		c-6.6,0-12,5.4-12,12s5.4,12,12,12s12-5.4,12-12S126.6,50,120,50L120,50z"/>
</g>
<g>
	<path fill="#808080" d="M168,26.5c6.3,0,11.5,5.2,11.5,11.5s-5.2,11.5-11.5,11.5s-11.5-5.2-11.5-11.5S161.7,26.5,168,26.5 M168,26
		c-6.6,0-12,5.4-12,12s5.4,12,12,12s12-5.4,12-12S174.6,26,168,26L168,26z"/>
</g>
<g>
	<circle fill="#808080" cx="168" cy="62" r="11.8"/>
	<path fill="#808080" d="M168,50.5c6.3,0,11.5,5.2,11.5,11.5s-5.2,11.5-11.5,11.5s-11.5-5.2-11.5-11.5S161.7,50.5,168,50.5 M168,50
		c-6.6,0-12,5.4-12,12s5.4,12,12,12s12-5.4,12-12S174.6,50,168,50L168,50z"/>
</g>
<g>
	<circle fill="#808080" cx="192" cy="14" r="11.8"/>
	<path fill="#808080" d="M192,2.5c6.3,0,11.5,5.2,11.5,11.5s-5.2,11.5-11.5,11.5s-11.5-5.2-11.5-11.5S185.7,2.5,192,2.5 M192,2
		c-6.6,0-12,5.4-12,12s5.4,12,12,12s12-5.4,12-12S198.6,2,192,2L192,2z"/>
</g>
<g>
	<circle fill="#808080" cx="192" cy="38" r="11.8"/>
	<path fill="#808080" d="M192,26.5c6.3,0,11.5,5.2,11.5,11.5s-5.2,11.5-11.5,11.5s-11.5-5.2-11.5-11.5S185.7,26.5,192,26.5 M192,26
		c-6.6,0-12,5.4-12,12s5.4,12,12,12s12-5.4,12-12S198.6,26,192,26L192,26z"/>
</g>
<g>
	<path fill="#808080" d="M216,2.5c6.3,0,11.5,5.2,11.5,11.5s-5.2,11.5-11.5,11.5s-11.5-5.2-11.5-11.5S209.7,2.5,216,2.5 M216,2
		c-6.6,0-12,5.4-12,12s5.4,12,12,12s12-5.4,12-12S222.6,2,216,2L216,2z"/>
</g>
<g>
	<circle fill="#808080" cx="216" cy="62" r="11.8"/>
	<path fill="#808080" d="M216,50.5c6.3,0,11.5,5.2,11.5,11.5s-5.2,11.5-11.5,11.5s-11.5-5.2-11.5-11.5S209.7,50.5,216,50.5 M216,50
		c-6.6,0-12,5.4-12,12s5.4,12,12,12s12-5.4,12-12S222.6,50,216,50L216,50z"/>
</g>
<g>
	<path fill="#808080" d="M240,2.5c6.3,0,11.5,5.2,11.5,11.5s-5.2,11.5-11.5,11.5s-11.5-5.2-11.5-11.5S233.7,2.5,240,2.5 M240,2
		c-6.6,0-12,5.4-12,12s5.4,12,12,12s12-5.4,12-12S246.6,2,240,2L240,2z"/>
</g>
<g>
	<circle fill="#808080" cx="240" cy="38" r="11.8"/>
	<path fill="#808080" d="M240,26.5c6.3,0,11.5,5.2,11.5,11.5s-5.2,11.5-11.5,11.5s-11.5-5.2-11.5-11.5S233.7,26.5,240,26.5 M240,26
		c-6.6,0-12,5.4-12,12s5.4,12,12,12s12-5.4,12-12S246.6,26,240,26L240,26z"/>
</g>
<g>
	<circle fill="#808080" cx="240" cy="62" r="11.8"/>
	<path fill="#808080" d="M240,50.5c6.3,0,11.5,5.2,11.5,11.5s-5.2,11.5-11.5,11.5s-11.5-5.2-11.5-11.5S233.7,50.5,240,50.5 M240,50
		c-6.6,0-12,5.4-12,12s5.4,12,12,12s12-5.4,12-12S246.6,50,240,50L240,50z"/>
</g>
<g>
	<circle fill="#808080" cx="264" cy="38" r="11.8"/>
	<path fill="#808080" d="M264,26.5c6.3,0,11.5,5.2,11.5,11.5s-5.2,11.5-11.5,11.5s-11.5-5.2-11.5-11.5S257.7,26.5,264,26.5 M264,26
		c-6.6,0-12,5.4-12,12s5.4,12,12,12s12-5.4,12-12S270.6,26,264,26L264,26z"/>
</g>
<g>
	<path fill="#808080" d="M264,50.5c6.3,0,11.5,5.2,11.5,11.5s-5.2,11.5-11.5,11.5s-11.5-5.2-11.5-11.5S257.7,50.5,264,50.5 M264,50
		c-6.6,0-12,5.4-12,12s5.4,12,12,12s12-5.4,12-12S270.6,50,264,50L264,50z"/>
</g>
<g>
	<path fill="#808080" d="M288,50.5c6.3,0,11.5,5.2,11.5,11.5s-5.2,11.5-11.5,11.5s-11.5-5.2-11.5-11.5S281.7,50.5,288,50.5 M288,50
		c-6.6,0-12,5.4-12,12s5.4,12,12,12s12-5.4,12-12S294.6,50,288,50L288,50z"/>
</g>
<g>
	<path fill="#808080" d="M288,26.5c6.3,0,11.5,5.2,11.5,11.5s-5.2,11.5-11.5,11.5s-11.5-5.2-11.5-11.5S281.7,26.5,288,26.5 M288,26
		c-6.6,0-12,5.4-12,12s5.4,12,12,12s12-5.4,12-12S294.6,26,288,26L288,26z"/>
</g>
<g>
	<circle fill="#808080" cx="312" cy="38" r="11.8"/>
	<path fill="#808080" d="M312,26.5c6.3,0,11.5,5.2,11.5,11.5s-5.2,11.5-11.5,11.5s-11.5-5.2-11.5-11.5S305.7,26.5,312,26.5 M312,26
		c-6.6,0-12,5.4-12,12s5.4,12,12,12s12-5.4,12-12S318.6,26,312,26L312,26z"/>
</g>
<g>
	<path fill="#808080" d="M312,2.5c6.3,0,11.5,5.2,11.5,11.5s-5.2,11.5-11.5,11.5s-11.5-5.2-11.5-11.5S305.7,2.5,312,2.5 M312,2
		c-6.6,0-12,5.4-12,12s5.4,12,12,12s12-5.4,12-12S318.6,2,312,2L312,2z"/>
</g>
<g>
	<circle fill="#808080" cx="288" cy="14" r="11.8"/>
	<path fill="#808080" d="M288,2.5c6.3,0,11.5,5.2,11.5,11.5s-5.2,11.5-11.5,11.5s-11.5-5.2-11.5-11.5S281.7,2.5,288,2.5 M288,2
		c-6.6,0-12,5.4-12,12s5.4,12,12,12s12-5.4,12-12S294.6,2,288,2L288,2z"/>
</g>
<g>
	<path fill="#808080" d="M312,50.5c6.3,0,11.5,5.2,11.5,11.5s-5.2,11.5-11.5,11.5s-11.5-5.2-11.5-11.5S305.7,50.5,312,50.5 M312,50
		c-6.6,0-12,5.4-12,12s5.4,12,12,12s12-5.4,12-12S318.6,50,312,50L312,50z"/>
</g>
<g>
	<circle fill="#808080" cx="336" cy="62" r="11.8"/>
	<path fill="#808080" d="M336,50.5c6.3,0,11.5,5.2,11.5,11.5s-5.2,11.5-11.5,11.5s-11.5-5.2-11.5-11.5S329.7,50.5,336,50.5 M336,50
		c-6.6,0-12,5.4-12,12s5.4,12,12,12s12-5.4,12-12S342.6,50,336,50L336,50z"/>
</g>
<g>
	<path fill="#808080" d="M144,2.5c6.3,0,11.5,5.2,11.5,11.5s-5.2,11.5-11.5,11.5s-11.5-5.2-11.5-11.5S137.7,2.5,144,2.5 M144,2
		c-6.6,0-12,5.4-12,12s5.4,12,12,12s12-5.4,12-12S150.6,2,144,2L144,2z"/>
</g>
<g>
	<circle fill="#808080" cx="144" cy="62" r="11.8"/>
	<path fill="#808080" d="M144,50.5c6.3,0,11.5,5.2,11.5,11.5s-5.2,11.5-11.5,11.5s-11.5-5.2-11.5-11.5S137.7,50.5,144,50.5 M144,50
		c-6.6,0-12,5.4-12,12s5.4,12,12,12s12-5.4,12-12S150.6,50,144,50L144,50z"/>
</g>
<g>
	<circle fill="#808080" cx="72" cy="38" r="11.8"/>
	<path fill="#808080" d="M72,26.5c6.3,0,11.5,5.2,11.5,11.5S78.3,49.5,72,49.5S60.5,44.3,60.5,38S65.7,26.5,72,26.5 M72,26
		c-6.6,0-12,5.4-12,12s5.4,12,12,12s12-5.4,12-12S78.6,26,72,26L72,26z"/>
</g>
</svg>
